<?xml version="1.0"?><svg id="Layer_1" style="enable-background:new 0 0 64 64;" version="1.1" viewBox="0 0 64 64" xml:space="preserve" xmlns="http://www.w3.org/2000/svg" xmlns:xlink="http://www.w3.org/1999/xlink"><style type="text/css">
	.st0{fill:none;stroke:#56AAFF;stroke-width:5;stroke-linecap:round;stroke-miterlimit:10;}
	.st1{fill:none;stroke:#D9DCE1;stroke-width:3;stroke-linecap:round;stroke-linejoin:round;stroke-miterlimit:10;}
	.st2{fill:none;stroke:#D9DCE1;stroke-width:5;stroke-linecap:round;stroke-linejoin:round;stroke-miterlimit:10;}
	.st3{fill:#56AAFF;}
	.st4{fill:#0478ED;}
	.st5{fill:#D9DCE1;}
	.st6{fill:none;stroke:#0478ED;stroke-width:2;stroke-miterlimit:10;stroke-dasharray:2,2;}
	.st7{fill:none;stroke:#FFFFFF;stroke-width:2;stroke-linecap:round;stroke-linejoin:round;stroke-miterlimit:10;}
	.st8{fill:none;stroke:#FFFFFF;stroke-width:2;stroke-miterlimit:10;}
	.st9{fill:none;stroke:#0478ED;stroke-width:2;stroke-miterlimit:10;}
	.st10{fill:none;stroke:#0478ED;stroke-width:3;stroke-miterlimit:10;}
	.st11{fill:none;stroke:#D9DCE1;stroke-width:2;stroke-linecap:round;stroke-linejoin:round;stroke-miterlimit:10;}
	.st12{fill:none;stroke:#56AAFF;stroke-width:5;stroke-linecap:round;stroke-linejoin:round;stroke-miterlimit:10;}
	.st13{fill:none;stroke:#FFFFFF;stroke-width:2;stroke-linecap:round;stroke-miterlimit:10;}
	.st14{fill:#FFFFFF;}
	.st15{fill:none;stroke:#56AAFF;stroke-width:4;stroke-linecap:round;stroke-linejoin:round;stroke-miterlimit:10;}
	.st16{fill:none;stroke:#D9DCE1;stroke-width:4;stroke-linecap:round;stroke-linejoin:round;stroke-miterlimit:10;}
	.st17{fill:none;stroke:#D9DCE1;stroke-width:3.6255;stroke-linecap:round;stroke-linejoin:round;stroke-miterlimit:10;}
	.st18{fill:none;stroke:#D9DCE1;stroke-width:2;stroke-linecap:square;stroke-miterlimit:10;}
	.st19{fill:none;stroke:#D9DCE1;stroke-width:3;stroke-linecap:round;stroke-miterlimit:10;}
	.st20{fill:none;stroke:#D9DCE1;stroke-width:4;stroke-linecap:round;stroke-miterlimit:10;}
	.st21{fill:none;stroke:#FFFFFF;stroke-width:2;stroke-linecap:square;stroke-miterlimit:10;}
	.st22{fill:none;stroke:#0478ED;stroke-width:3;stroke-linecap:square;stroke-miterlimit:10;}
	.st23{fill:none;stroke:#FFFFFF;stroke-width:2;stroke-linecap:square;stroke-linejoin:bevel;stroke-miterlimit:10;}
	.st24{fill:none;stroke:#0478ED;stroke-width:2;stroke-linecap:round;stroke-miterlimit:10;}
	.st25{fill:none;stroke:#56AAFF;stroke-width:2;stroke-linecap:round;stroke-miterlimit:10;}
	.st26{fill:none;stroke:#FFFFFF;stroke-width:3;stroke-linecap:round;stroke-miterlimit:10;}
	.st27{fill:none;stroke:#D9DCE1;stroke-width:3;stroke-linecap:square;stroke-linejoin:round;stroke-dasharray:1.8975,9.4877;}
	.st28{fill:none;stroke:#D9DCE1;stroke-width:4;stroke-linecap:square;stroke-miterlimit:10;}
	.st29{fill:none;stroke:#56AAFF;stroke-width:2;stroke-linejoin:round;stroke-miterlimit:10;}
	.st30{fill:none;stroke:#D9DCE1;stroke-width:2;stroke-linecap:round;stroke-miterlimit:10;}
	.st31{fill:none;stroke:#0478ED;stroke-width:2;stroke-linecap:round;stroke-linejoin:round;stroke-miterlimit:10;}
	.st32{fill:none;stroke:#56AAFF;stroke-width:3;stroke-linecap:round;stroke-miterlimit:10;}
	.st33{fill:none;stroke:#D9DCE1;stroke-width:2;stroke-linecap:square;stroke-linejoin:bevel;stroke-miterlimit:10;}
	.st34{fill:none;stroke:#D9DCE1;stroke-width:2;stroke-linejoin:bevel;stroke-miterlimit:10;}
	.st35{fill:none;stroke:#56AAFF;stroke-width:5;stroke-miterlimit:10;}
	.st36{fill-rule:evenodd;clip-rule:evenodd;fill:#0478ED;}
	.st37{fill-rule:evenodd;clip-rule:evenodd;fill:#D9DCE1;}
	.st38{fill:none;stroke:#56AAFF;stroke-width:4;stroke-linecap:round;stroke-miterlimit:10;}
	.st39{fill-rule:evenodd;clip-rule:evenodd;fill:#56AAFF;}
	.st40{fill:none;stroke:#0478ED;stroke-width:3;stroke-linecap:round;stroke-miterlimit:10;}
	.st41{fill:none;stroke:#56AAFF;stroke-width:2;stroke-linecap:round;stroke-linejoin:round;stroke-miterlimit:10;}
	.st42{fill:none;stroke:#56AAFF;stroke-width:12;stroke-linecap:round;stroke-miterlimit:10;}
	.st43{fill:none;stroke:#D9DCE1;stroke-width:12;stroke-linecap:round;stroke-miterlimit:10;}
	.st44{fill:none;stroke:#0478ED;stroke-width:2;stroke-linecap:square;stroke-linejoin:round;stroke-miterlimit:10;}
	.st45{fill:none;stroke:#FFFFFF;stroke-width:3;stroke-miterlimit:10;}
	.st46{fill:none;stroke:#56AAFF;stroke-width:3;stroke-linecap:round;stroke-linejoin:round;stroke-miterlimit:10;}
	.st47{fill:none;stroke:#0478ED;stroke-width:3;stroke-linecap:round;stroke-linejoin:round;stroke-miterlimit:10;}
	.st48{fill:none;stroke:#56AAFF;stroke-width:4;stroke-linecap:square;stroke-miterlimit:10;}
	.st49{fill:none;stroke:#0478ED;stroke-width:2.3926;stroke-miterlimit:10;}
	.st50{fill:none;stroke:#0478ED;stroke-width:6;stroke-linecap:round;stroke-miterlimit:10;}
	.st51{fill:none;stroke:#56AAFF;stroke-width:3.7712;stroke-miterlimit:10;}
</style><path class="st3" d="M42.9,42H21.1c-3.5,0-6.4,2.6-6.9,6L13,56h38l-1.1-8C49.4,44.6,46.4,42,42.9,42z"/><line class="st44" x1="32" x2="32" y1="43" y2="50"/><circle class="st44" cx="32" cy="52" r="2"/><polyline class="st44" points="23.6,48.4 26,46 26,43 "/><circle class="st44" cx="22" cy="50" r="2"/><polyline class="st44" points="40.1,47.6 38,45.5 38,43 "/><circle class="st44" cx="42" cy="49" r="2"/><path class="st5" d="M43,37H21c-3.8,0-7-3.1-7-7v-9.2c0-3.6,2.8-6.6,6.4-6.9c7.9-0.8,15.6-0.8,23.3,0c3.6,0.3,6.4,3.3,6.4,6.9V30  C50,33.9,46.9,37,43,37z"/><path class="st4" d="M19,26.4v-3c0-2.3,1.7-4.3,4-4.6c5.9-0.7,11.9-0.7,18,0c2.3,0.3,4,2.3,4,4.6v2.9c0,2.5-2.1,4.6-4.6,4.6H23.6  C21.1,31,19,28.9,19,26.4z"/><path class="st5" d="M49,28L49,28c1.7,0,3-1.3,3-3v-2c0-1.7-1.3-3-3-3h0V28z"/><path class="st5" d="M35.5,13.5L35.5,13.5c0-1.7-1.3-3-3-3h-1c-1.7,0-3,1.3-3,3v0H35.5z"/><path class="st5" d="M15,28L15,28c-1.7,0-3-1.3-3-3v-2c0-1.7,1.3-3,3-3h0V28z"/><circle class="st14" cx="26" cy="25" r="2"/><circle class="st14" cx="38" cy="25" r="2"/><line class="st11" x1="32" x2="32" y1="7" y2="13.5"/></svg>